<?xml version="1.0" encoding="iso-8859-1"?>
<!-- Uploaded to: SVG Repo, www.svgrepo.com, Generator: SVG Repo Mixer Tools -->
<svg height="800px" width="800px" version="1.1" id="Layer_1" xmlns="http://www.w3.org/2000/svg" xmlns:xlink="http://www.w3.org/1999/xlink" 
	 viewBox="0 0 511.984 511.984" xml:space="preserve">
<g>
	<path style="fill:#CBD0D8;" d="M138.669,266.664h-21.328c-5.891,0-10.672-4.781-10.672-10.672s4.781-10.656,10.672-10.656h21.328
		c5.89,0,10.671,4.766,10.671,10.656C149.34,261.882,144.558,266.664,138.669,266.664z"/>
	<path style="fill:#CBD0D8;" d="M394.66,266.664h-21.328c-5.891,0-10.672-4.781-10.672-10.672s4.781-10.656,10.672-10.656h21.328
		c5.891,0,10.672,4.766,10.672,10.656C405.332,261.882,400.551,266.664,394.66,266.664z"/>
</g>
<path style="fill:#434A54;" d="M255.993,223.993c-5.875,0-10.656-4.765-10.656-10.656V10.672C245.337,4.781,250.118,0,255.993,0
	c5.905,0,10.671,4.781,10.671,10.672v202.666C266.664,219.228,261.898,223.993,255.993,223.993z"/>
<path style="fill:#ED5564;" d="M152.465,139.09c22.53,0,42.093,12.812,51.779,31.53c9.672-18.718,29.218-31.53,51.749-31.53
	c22.546,0,42.092,12.812,51.779,31.53c9.688-18.718,29.218-31.53,51.764-31.53c18.577,0,35.14,8.703,45.796,22.264v-1.359
	c0-82.466-66.857-149.323-149.339-149.323c-82.467,0-149.324,66.857-149.324,149.323v1.359
	C117.341,147.792,133.888,139.09,152.465,139.09z"/>
<path style="fill:#646C77;" d="M309.335,213.337H202.666c-5.89,0-10.671,4.766-10.671,10.656v63.998
	c0,5.891,4.781,10.672,10.671,10.672h106.669c5.891,0,10.656-4.781,10.656-10.672v-63.998
	C319.991,218.103,315.225,213.337,309.335,213.337z M298.663,277.335h-85.325v-42.67h85.325V277.335z"/>
<path style="fill:#E5E8EC;" d="M447.985,501.328c0,5.891-4.765,10.656-10.654,10.656H74.671c-5.891,0-10.672-4.766-10.672-10.656
	V266.664c0-5.891,4.781-10.672,10.672-10.672h362.66c5.89,0,10.654,4.781,10.654,10.672L447.985,501.328L447.985,501.328z"/>
<path style="fill:#CBD0D8;" d="M437.331,490.656H74.671c-5.891,0-10.672-4.781-10.672-10.672v21.344
	c0,5.891,4.781,10.656,10.672,10.656h362.66c5.89,0,10.654-4.766,10.654-10.656v-21.344
	C447.985,485.875,443.221,490.656,437.331,490.656z"/>
<path style="fill:#DA4453;" d="M277.336,426.659c0,11.781-9.563,21.327-21.343,21.327l0,0c-11.781,0-21.328-9.546-21.328-21.327
	v-85.326c0-11.781,9.547-21.343,21.328-21.343l0,0c11.78,0,21.343,9.562,21.343,21.343V426.659z"/>
<path style="fill:#ED5564;" d="M319.991,383.987c0,11.781-9.531,21.344-21.328,21.344h-85.325c-11.781,0-21.343-9.563-21.343-21.344
	l0,0c0-11.78,9.562-21.327,21.343-21.327h85.325C310.46,362.66,319.991,372.207,319.991,383.987L319.991,383.987z"/>
</svg>